<svg xmlns="http://www.w3.org/2000/svg" width="100.774" height="90.547" viewBox="0 0 100.774 90.547">
  <defs>
    <style>
      .cls-1 {
        fill: rgba(50,82,89,0.8);
      }
    </style>
  </defs>
  <g id="Group_69" data-name="Group 69" transform="translate(-523.226 -951)">
    <circle id="Ellipse_5" data-name="Ellipse 5" class="cls-1" cx="42" cy="42" r="42" transform="translate(540 951)"/>
    <path id="_022-design" data-name="022-design" d="M62.98,68.821V27.732H51.139V20.179H34.117v7.557h-6.4l-4.248-8.509-4.3,8.5H3.884V68.821H0v1.964a10.212,10.212,0,0,0,10.2,10.2H56.573a10.212,10.212,0,0,0,10.2-10.2V68.821ZM59.052,31.66V68.821H51.139V31.66ZM47.211,24.107v3.629H42.628v3.928h4.583v3.928H42.628V39.52h4.583v3.928H42.628v3.928h4.583v3.928H42.628v3.928h4.583v3.928H42.628v3.928h4.583v5.732H38.045V24.107ZM34.117,31.664V68.821h-2.9V34.742l-1.537-3.078h4.435ZM19.563,37.379h1.9V68.821h-1.9Zm5.828,0h1.9V68.821h-1.9Zm.793-3.928h-5.5l2.766-5.473ZM7.812,31.66H17.19l-1.555,3.077V68.821H7.812Zm48.761,45.4H10.2a6.284,6.284,0,0,1-5.958-4.309H62.531A6.284,6.284,0,0,1,56.573,77.058Z" transform="translate(523.226 960.561)"/>
  </g>
</svg>
