<svg xmlns="http://www.w3.org/2000/svg" width="243.835" height="125.432" viewBox="0 0 243.835 125.432">
  <g id="Group_42" data-name="Group 42" transform="translate(0.753 -0.744)">
    <path id="Path_84" data-name="Path 84" d="M86.607,14.727A47.838,47.838,0,0,0,50.843-.638,50.315,50.315,0,0,0,16.968,13.369a1.658,1.658,0,0,0-.153,2.235,1.425,1.425,0,0,0,2.1.108A47.365,47.365,0,0,1,50.805,2.526C77.2,2.195,98.4,24.731,98.068,52.763S76,103.871,49.6,104.2,2.009,82,2.341,53.965A53.812,53.812,0,0,1,14.779,20.1a1.646,1.646,0,0,0-.1-2.232,1.435,1.435,0,0,0-2.1.161A57.162,57.162,0,0,0-.638,54,54.1,54.1,0,0,0,13.8,92a47.838,47.838,0,0,0,35.764,15.366A50.33,50.33,0,0,0,85.7,91.1a56.718,56.718,0,0,0,15.343-38.372A54.1,54.1,0,0,0,86.607,14.727Z" transform="translate(0 20.656) rotate(-11)" fill="#d63f48"/>
    <g id="Group_40" data-name="Group 40" transform="translate(41.837 29.258)">
      <g id="Group_39" data-name="Group 39" transform="translate(0.072)">
        <g id="Group_38" data-name="Group 38" transform="translate(0)">
          <path id="Path_82" data-name="Path 82" d="M125.324,0a12.388,12.388,0,0,0-7.794,2.762,14.039,14.039,0,0,0-4.646,7.005,1.029,1.029,0,0,0,.625,1.27.94.94,0,0,0,1.19-.667,11.991,11.991,0,0,1,3.969-5.983,10.578,10.578,0,0,1,6.655-2.358c6.134,0,11.124,5.325,11.124,11.871,0,.358-.015.719-.045,1.073a1,1,0,0,0,.862,1.1c.029,0,.057,0,.086,0a.977.977,0,0,0,.946-.924c.035-.414.052-.836.052-1.254C138.35,6.236,132.506,0,125.324,0Z" transform="translate(-112.842 0)" fill="#d63f48"/>
        </g>
      </g>
      <path id="Path_83" data-name="Path 83" d="M144.578,56.685h-.209a3.91,3.91,0,0,0-2.339.78,4.148,4.148,0,0,0-3.911-3.043,4.006,4.006,0,0,0-3.159,1.584,4.006,4.006,0,0,0-3.159-1.584,3.869,3.869,0,0,0-.79.084,13.3,13.3,0,0,0,4.137-3.761,1.061,1.061,0,0,0-.172-1.423.911.911,0,0,0-1.334.183,11.27,11.27,0,0,1-4.142,3.535V50.31a9.626,9.626,0,0,0,4.206-8.049c0-5.224-3.982-9.473-8.877-9.473s-8.877,4.25-8.877,9.473a9.523,9.523,0,0,0,5.329,8.68l0,2.563a11.614,11.614,0,0,1-7.14-7.947.943.943,0,0,0-1.177-.694,1.026,1.026,0,0,0-.65,1.256,14.059,14.059,0,0,0,4.618,7.2,12.627,12.627,0,0,0,4.348,2.326l0,6.168-.08-.052a3.685,3.685,0,0,0-4.776.673,4.419,4.419,0,0,0-.589,5.208,1.031,1.031,0,0,0,.072.11l.447.592A40.508,40.508,0,0,1,122.082,79.2a13.915,13.915,0,0,0,5.793,7.18l-.7,10.022a1.057,1.057,0,0,0,.251.766.924.924,0,0,0,.7.324H141.8a.924.924,0,0,0,.7-.324,1.056,1.056,0,0,0,.251-.766l-.7-10.022a13.954,13.954,0,0,0,6.6-11.872V60.96A4.18,4.18,0,0,0,144.578,56.685ZM117.855,42.261a6.99,6.99,0,1,1,13.951,0,7.65,7.65,0,0,1-2.3,5.52v-.412a4.7,4.7,0,0,0-.743-2.543,5.128,5.128,0,0,0,.679-2.565,4.617,4.617,0,1,0-9.214,0,5.068,5.068,0,0,0,1.337,3.457,4.618,4.618,0,0,0-.276,1.572v1.377A7.554,7.554,0,0,1,117.855,42.261Zm9.681,0a3.029,3.029,0,0,1-.23,1.163,3.781,3.781,0,0,0-1.51-.5,3.954,3.954,0,0,0-3.117,1.079,2.992,2.992,0,0,1-.554-1.746,2.711,2.711,0,1,1,5.411,0Zm19.207,32.246h0a11.905,11.905,0,0,1-6.129,10.4,1.03,1.03,0,0,0-.509.976l.671,9.582H129.144l.673-9.582a1.03,1.03,0,0,0-.509-.976,11.919,11.919,0,0,1-5.448-6.426,42.575,42.575,0,0,0-6.028-11.41l-.4-.536a2.293,2.293,0,0,1,.345-2.676,1.859,1.859,0,0,1,2.455-.354,3.122,3.122,0,0,1,1.154,1.316.93.93,0,0,0,1.069.517,1,1,0,0,0,.725-.985l.01-17.06a2.434,2.434,0,0,1,.728-1.742,2.1,2.1,0,0,1,1.7-.6,2.368,2.368,0,0,1,1.988,2.421V64.056a.953.953,0,1,0,1.9,0v-5.25a2.359,2.359,0,0,1,2.3-2.355,2.287,2.287,0,0,1,2.207,2.355s0,0,0,0v5.246a.953.953,0,1,0,1.9,0v-5.2c0-.016,0-.031,0-.047a2.287,2.287,0,0,1,2.207-2.355,2.26,2.26,0,0,1,2.184,2.023l.014,5.582a.953.953,0,1,0,1.9,0V60.714a2.2,2.2,0,0,1,2.151-2h.209a2.209,2.209,0,0,1,2.165,2.246Z" transform="translate(-112.276 -28.361)" fill="#dbdbdb"/>
    </g>
    <line id="Line_61" data-name="Line 61" x2="118.767" transform="translate(122.815 75.988)" fill="none" stroke="#dadada" stroke-linecap="round" stroke-width="3"/>
    <text id="Chase" transform="translate(127.257 51.853)" fill="#d6d6d6" font-size="18" font-family="Raleway-Bold, Raleway" font-weight="700"><tspan x="0.192" y="17">Chase</tspan></text>
    <text id="Hart" transform="translate(182.92 51.853)" fill="#d4d4d4" font-size="18" font-family="Raleway-Bold, Raleway" font-weight="700"><tspan x="0.913" y="17">Hart</tspan></text>
    <text id="UXUI_Design" data-name="UXUI Design" transform="translate(140.438 78.853)" fill="#dbdbdb" font-size="12" font-family="OpenSans-Light, Open Sans" font-weight="300"><tspan x="8.88" y="13">UXUI Design</tspan></text>
  </g>
</svg>
