<svg xmlns="http://www.w3.org/2000/svg" width="228.203" height="97.973" viewBox="0 0 228.203 97.973">
  <defs>
    <style>
      .cls-1 {
        fill: #d63f48;
      }

      .cls-2, .cls-4, .cls-5 {
        fill: #313131;
      }

      .cls-3, .cls-6 {
        fill: none;
        stroke: #313131;
        stroke-linecap: round;
      }

      .cls-3 {
        stroke-width: 3px;
      }

      .cls-4 {
        font-size: 18px;
        font-family: Raleway-Bold, Raleway;
        font-weight: 700;
      }

      .cls-5 {
        font-size: 12px;
        font-family: OpenSans-Light, Open Sans;
        font-weight: 300;
      }
    </style>
  </defs>
  <g id="Group_52" data-name="Group 52" transform="translate(-56.689 -5.728)">
    <g id="Component_28_1" data-name="Component 28 – 1" transform="translate(56.689 5.728)">
      <path id="Path_84" data-name="Path 84" class="cls-1" d="M67.647,11.5A37.365,37.365,0,0,0,39.712-.5,39.3,39.3,0,0,0,13.254,10.442a1.3,1.3,0,0,0-.119,1.746,1.113,1.113,0,0,0,1.641.084,37,37,0,0,1,24.908-10.3C60.3,1.714,76.858,19.317,76.6,41.212S59.359,81.132,38.745,81.391,1.57,64.047,1.828,42.151A42.031,42.031,0,0,1,11.543,15.7a1.286,1.286,0,0,0-.078-1.743,1.121,1.121,0,0,0-1.644.125A44.648,44.648,0,0,0-.5,42.18,42.257,42.257,0,0,0,10.78,71.86a37.365,37.365,0,0,0,27.935,12A39.312,39.312,0,0,0,66.942,71.155,44.3,44.3,0,0,0,78.926,41.183,42.257,42.257,0,0,0,67.647,11.5Z" transform="translate(0.588 15.553) rotate(-11)"/>
      <g id="Group_40" data-name="Group 40" transform="translate(33.267 22.272)">
        <g id="Group_39" data-name="Group 39" transform="translate(0.056)">
          <g id="Group_38" data-name="Group 38" transform="translate(0)">
            <path id="Path_82" data-name="Path 82" class="cls-1" d="M122.592,0A9.676,9.676,0,0,0,116.5,2.157a10.966,10.966,0,0,0-3.629,5.472.8.8,0,0,0,.488.992.735.735,0,0,0,.93-.521,9.366,9.366,0,0,1,3.1-4.673,8.262,8.262,0,0,1,5.2-1.842c4.791,0,8.689,4.159,8.689,9.272,0,.279-.012.561-.035.838a.78.78,0,0,0,.673.86c.023,0,.045,0,.067,0a.763.763,0,0,0,.739-.722c.027-.323.041-.653.041-.979C132.766,4.871,128.2,0,122.592,0Z" transform="translate(-112.842)"/>
          </g>
        </g>
        <path id="Path_83" data-name="Path 83" class="cls-2" d="M137.506,51.453h-.163a3.054,3.054,0,0,0-1.827.609,3.24,3.24,0,0,0-3.055-2.377,3.129,3.129,0,0,0-2.467,1.237,3.129,3.129,0,0,0-2.467-1.237,3.022,3.022,0,0,0-.617.066,10.391,10.391,0,0,0,3.231-2.937.828.828,0,0,0-.134-1.111.712.712,0,0,0-1.042.143,8.8,8.8,0,0,1-3.235,2.761V46.474a7.519,7.519,0,0,0,3.285-6.287,6.948,6.948,0,1,0-13.867,0,7.438,7.438,0,0,0,4.162,6.78v2a9.071,9.071,0,0,1-5.577-6.207.737.737,0,0,0-.919-.542.8.8,0,0,0-.508.981,10.981,10.981,0,0,0,3.607,5.621,9.862,9.862,0,0,0,3.4,1.817l0,4.818-.062-.04a2.878,2.878,0,0,0-3.73.526,3.452,3.452,0,0,0-.46,4.068.806.806,0,0,0,.057.086l.349.463a31.641,31.641,0,0,1,4.477,8.48,10.869,10.869,0,0,0,4.525,5.609l-.549,7.828a.826.826,0,0,0,.2.6.722.722,0,0,0,.544.253h10.685a.722.722,0,0,0,.544-.253.825.825,0,0,0,.2-.6l-.548-7.828a10.9,10.9,0,0,0,5.154-9.273V54.793A3.265,3.265,0,0,0,137.506,51.453ZM116.633,40.187a5.46,5.46,0,1,1,10.9,0,5.976,5.976,0,0,1-1.8,4.311v-.322a3.673,3.673,0,0,0-.581-1.986,4.006,4.006,0,0,0,.531-2,3.606,3.606,0,1,0-7.2,0,3.958,3.958,0,0,0,1.045,2.7,3.607,3.607,0,0,0-.216,1.228v1.075A5.9,5.9,0,0,1,116.633,40.187Zm7.562,0a2.366,2.366,0,0,1-.18.909,2.953,2.953,0,0,0-1.18-.388,3.089,3.089,0,0,0-2.435.843,2.337,2.337,0,0,1-.432-1.363,2.118,2.118,0,1,1,4.226,0Zm15,25.187h0a9.3,9.3,0,0,1-4.788,8.121.8.8,0,0,0-.4.762l.524,7.485h-9.085l.525-7.484a.8.8,0,0,0-.4-.762,9.31,9.31,0,0,1-4.255-5.019,33.255,33.255,0,0,0-4.708-8.912l-.316-.418a1.791,1.791,0,0,1,.269-2.09,1.452,1.452,0,0,1,1.918-.276,2.439,2.439,0,0,1,.9,1.028.727.727,0,0,0,.835.4.784.784,0,0,0,.566-.769l.008-13.326a1.9,1.9,0,0,1,.568-1.361,1.639,1.639,0,0,1,1.326-.47,1.85,1.85,0,0,1,1.553,1.891V57.211a.744.744,0,1,0,1.485,0v-4.1a1.843,1.843,0,0,1,1.8-1.84,1.787,1.787,0,0,1,1.724,1.84s0,0,0,0v4.1a.744.744,0,1,0,1.485,0V53.147c0-.012,0-.024,0-.037a1.787,1.787,0,0,1,1.724-1.84,1.765,1.765,0,0,1,1.706,1.58l.011,4.36a.744.744,0,1,0,1.485,0V54.6a1.717,1.717,0,0,1,1.68-1.562h.163a1.725,1.725,0,0,1,1.691,1.754Z" transform="translate(-112.276 -29.33)"/>
      </g>
      <line id="Line_61" data-name="Line 61" class="cls-3" x2="92.767" transform="translate(96.517 54.772)"/>
      <text id="Chase" class="cls-4" transform="translate(97.311 34.272)"><tspan x="0.36" y="17">Chase</tspan></text>
      <text id="Hart" class="cls-4" transform="translate(151.311 34.272)"><tspan x="0.735" y="17">Hart</tspan></text>
      <text id="UXUI_Design" data-name="UXUI Design" class="cls-5" transform="translate(117.311 55.272)"><tspan x="0.213" y="13">UXUI Design</tspan></text>
    </g>
    <line id="Line_62" data-name="Line 62" class="cls-6" y2="67" transform="translate(284.392 21.5)"/>
  </g>
</svg>
