<svg xmlns="http://www.w3.org/2000/svg" width="101.725" height="93" viewBox="0 0 101.725 93">
  <defs>
    <style>
      .cls-1 {
        fill: rgba(50,82,89,0.8);
      }
    </style>
  </defs>
  <g id="Group_68" data-name="Group 68" transform="translate(-320.275 -951)">
    <circle id="Ellipse_4" data-name="Ellipse 4" class="cls-1" cx="42" cy="42" r="42" transform="translate(338 951)"/>
    <path id="_004-puzzle" data-name="004-puzzle" d="M0,65.725H65.725V0H0ZM3.851,34.788H8.285a3.4,3.4,0,0,1,3.323,2.693,7.7,7.7,0,1,0,11.7,0,3.4,3.4,0,0,1,3.324-2.692h4.306v4.306a7.256,7.256,0,0,0,7.247,7.247h.861a4.455,4.455,0,0,1,3.445-1.926,3.851,3.851,0,0,1,0,7.7,4.431,4.431,0,0,1-3.445-1.926h-.861a7.256,7.256,0,0,0-7.247,7.247v4.434H3.851ZM34.788,61.874V57.439a3.4,3.4,0,0,1,2.693-3.323,7.7,7.7,0,1,0,0-11.7,3.4,3.4,0,0,1-2.693-3.323V34.788h4.306a7.256,7.256,0,0,0,7.247-7.247V26.68a4.455,4.455,0,0,1-1.926-3.445,3.851,3.851,0,0,1,7.7,0,4.419,4.419,0,0,1-1.926,3.445v.861a7.256,7.256,0,0,0,7.247,7.247h4.434V61.874ZM61.874,30.937H57.439a3.4,3.4,0,0,1-3.323-2.693,7.7,7.7,0,1,0-11.7,0,3.4,3.4,0,0,1-3.323,2.693H34.788V26.631a7.256,7.256,0,0,0-7.247-7.247H26.68a4.443,4.443,0,0,1-3.445,1.926,3.851,3.851,0,0,1,0-7.7,4.431,4.431,0,0,1,3.445,1.926h.861a7.256,7.256,0,0,0,7.247-7.247V3.851H61.874ZM30.937,3.851V8.285a3.4,3.4,0,0,1-2.693,3.323,7.7,7.7,0,1,0,0,11.7,3.4,3.4,0,0,1,2.693,3.323v4.306H26.631a7.247,7.247,0,0,0-7.247,7.247v.861a4.455,4.455,0,0,1,1.926,3.445,3.851,3.851,0,0,1-7.7,0,4.419,4.419,0,0,1,1.926-3.445v-.861a7.256,7.256,0,0,0-7.247-7.247H3.851V3.851Zm0,0" transform="translate(320.275 978.275)"/>
  </g>
</svg>
