<svg xmlns="http://www.w3.org/2000/svg" width="292.496" height="269" viewBox="0 0 292.496 269">
  <defs>
    <style>
      .cls-1 {
        fill: rgba(50,82,89,0.8);
      }

      .cls-2 {
        fill: #1a2a33;
      }
    </style>
  </defs>
  <g id="Group_72" data-name="Group 72" transform="translate(-570.504 -1782)">
    <circle id="Ellipse_3" data-name="Ellipse 3" class="cls-1" cx="116.5" cy="116.5" r="116.5" transform="translate(630 1782)"/>
    <g id="Group_13" data-name="Group 13" transform="translate(-42 822)">
      <g id="skills" transform="translate(611.504 1003.008)">
        <path id="Path_12" data-name="Path 12" class="cls-2" d="M121.276,66.885l7.124-12L109.011,35.5l-12,7.124a57.614,57.614,0,0,0-9.907-4.093L83.655,25H56.239L52.792,38.532a57.614,57.614,0,0,0-9.907,4.093l-12-7.124L11.5,54.891l7.124,12A57.615,57.615,0,0,0,14.529,76.8L1,80.243v27.416l13.532,3.447a57.615,57.615,0,0,0,4.093,9.907l-7.124,12L30.891,152.4l12-7.124A57.614,57.614,0,0,0,52.8,149.37L56.243,162.9H83.659l3.447-13.532a57.615,57.615,0,0,0,9.907-4.093l12,7.124L128.4,133.007l-7.124-12a57.614,57.614,0,0,0,4.093-9.907l13.529-3.447V80.239l-13.532-3.447A57.6,57.6,0,0,0,121.276,66.885Zm10.364,35.131-12.135,3.1-.552,2.047a50.274,50.274,0,0,1-5,12.11l-1.06,1.84,6.387,10.763L107.867,143.28,97.1,136.893l-1.84,1.06a50.421,50.421,0,0,1-12.11,5l-2.047.552L78.016,155.64H61.886l-3.1-12.135-2.047-.552a50.274,50.274,0,0,1-12.11-5l-1.84-1.06-10.763,6.387L20.621,131.867,27.008,121.1l-1.06-1.84a50.421,50.421,0,0,1-5-12.11l-.552-2.047L8.258,102.016V85.886l12.135-3.1.552-2.047a50.275,50.275,0,0,1,5-12.11l1.06-1.84L20.621,56.031,32.031,44.621l10.763,6.387,1.84-1.06a50.421,50.421,0,0,1,12.11-5l2.047-.552,3.092-12.135h16.13l3.1,12.135,2.047.552a50.275,50.275,0,0,1,12.11,5l1.84,1.06,10.763-6.387,11.409,11.409L112.89,66.794l1.06,1.84a50.422,50.422,0,0,1,5,12.11l.552,2.047,12.135,3.092Z" transform="translate(0 63.094)"/>
        <path id="Path_13" data-name="Path 13" class="cls-2" d="M51.547,32A43.547,43.547,0,1,0,95.094,75.547,43.6,43.6,0,0,0,51.547,32Zm0,79.836A36.289,36.289,0,1,1,87.836,75.547,36.33,36.33,0,0,1,51.547,111.836Z" transform="translate(18.402 81.496)"/>
        <path id="Path_14" data-name="Path 14" class="cls-2" d="M35.773,38A21.773,21.773,0,1,0,57.547,59.773,21.8,21.8,0,0,0,35.773,38Zm0,36.289A14.516,14.516,0,1,1,50.289,59.773,14.53,14.53,0,0,1,35.773,74.289Z" transform="translate(34.176 97.269)"/>
        <path id="Path_15" data-name="Path 15" class="cls-2" d="M130.98,9H43.887A10.9,10.9,0,0,0,33,19.887v50.8A10.9,10.9,0,0,0,43.887,81.578h7.258V98.336L84.661,81.578H130.98a10.9,10.9,0,0,0,10.887-10.887v-50.8A10.9,10.9,0,0,0,130.98,9Zm3.629,61.691a3.63,3.63,0,0,1-3.629,3.629H82.948L58.4,86.593V74.32H43.887a3.63,3.63,0,0,1-3.629-3.629v-50.8a3.63,3.63,0,0,1,3.629-3.629H130.98a3.63,3.63,0,0,1,3.629,3.629Z" transform="translate(84.125 21.031)"/>
        <path id="Path_16" data-name="Path 16" class="cls-2" d="M11.887,66.32H47.17L69.949,79.99V66.32H98.98a10.9,10.9,0,0,0,10.887-10.887V11.887A10.9,10.9,0,0,0,98.98,1H11.887A10.9,10.9,0,0,0,1,11.887V55.433A10.9,10.9,0,0,0,11.887,66.32ZM8.258,11.887a3.63,3.63,0,0,1,3.629-3.629H98.98a3.63,3.63,0,0,1,3.629,3.629V55.433a3.63,3.63,0,0,1-3.629,3.629H62.691v8.1l-13.51-8.1H11.887a3.63,3.63,0,0,1-3.629-3.629Z" transform="translate(0 0)"/>
        <path id="Path_17" data-name="Path 17" class="cls-2" d="M104.32,49.289H97.062V20.258H89.8V49.289H82.547V13H75.289V49.289H68.031V27.516H60.773V49.289H53.516V34.773H46.258V49.289H39v7.258h72.578V13H104.32Z" transform="translate(99.898 31.547)"/>
        <path id="Path_18" data-name="Path 18" class="cls-2" d="M15.887,28.773A10.887,10.887,0,1,0,5,17.887,10.9,10.9,0,0,0,15.887,28.773Zm0-14.516a3.629,3.629,0,1,1-3.629,3.629A3.63,3.63,0,0,1,15.887,14.258Z" transform="translate(10.516 15.773)"/>
        <path id="Path_19" data-name="Path 19" class="cls-2" d="M23.887,28.773A10.887,10.887,0,1,0,13,17.887,10.9,10.9,0,0,0,23.887,28.773Zm0-14.516a3.629,3.629,0,1,1-3.629,3.629A3.63,3.63,0,0,1,23.887,14.258Z" transform="translate(31.547 15.773)"/>
        <path id="Path_20" data-name="Path 20" class="cls-2" d="M31.887,28.773A10.887,10.887,0,1,0,21,17.887,10.9,10.9,0,0,0,31.887,28.773Zm0-14.516a3.629,3.629,0,1,1-3.629,3.629A3.63,3.63,0,0,1,31.887,14.258Z" transform="translate(52.578 15.773)"/>
        <path id="Path_21" data-name="Path 21" class="cls-2" d="M82.477,41a39.745,39.745,0,0,0-20.188,5.516l-21.882-2.6,7.359,17.346A39.9,39.9,0,1,0,82.477,41ZM61.992,106.32h40.967a32.533,32.533,0,0,1-40.967,0ZM77.65,82.656a7.164,7.164,0,0,1-2.431-5.367V70.648c0-4.141,3.081-7.664,6.862-7.864a7.26,7.26,0,0,1,7.653,7.247v7.258A7.164,7.164,0,0,1,87.3,82.656l-1.2,1.081v6.681l10.03,5.015a8.08,8.08,0,0,1,3.64,3.629H65.181a8.1,8.1,0,0,1,3.64-3.629l10.027-5.015V83.738ZM107.8,101.512A15.25,15.25,0,0,0,99.38,88.941L93.89,86.2a14.467,14.467,0,0,0,3.1-8.909V70.031A14.52,14.52,0,0,0,81.7,55.534c-7.7.4-13.739,7.044-13.739,15.114v6.641a14.485,14.485,0,0,0,3.1,8.909L65.57,88.941a15.25,15.25,0,0,0-8.415,12.57A32.528,32.528,0,0,1,54.89,63.488l1.016-1.608L51.969,52.6l11.986,1.426,1.092-.689A32.626,32.626,0,0,1,107.8,101.512Z" transform="translate(103.597 105.156)"/>
      </g>
    </g>
  </g>
</svg>
