<svg xmlns="http://www.w3.org/2000/svg" width="106" height="96" viewBox="0 0 106 96">
  <defs>
    <style>
      .cls-1 {
        fill: rgba(50,82,89,0.8);
      }
    </style>
  </defs>
  <g id="Group_71" data-name="Group 71" transform="translate(-918 -951)">
    <circle id="Ellipse_7" data-name="Ellipse 7" class="cls-1" cx="42" cy="42" r="42" transform="translate(940 951)"/>
    <g id="_035-gear" data-name="035-gear" transform="translate(918 983)">
      <path id="Path_20" data-name="Path 20" d="M10.372,43.189l-4.6,7.663,7.374,7.374,7.663-4.6a24.174,24.174,0,0,0,3.8,1.576L26.781,64H37.219l2.167-8.8a24.267,24.267,0,0,0,3.8-1.576l7.663,4.6,7.374-7.374-4.6-7.663a24.267,24.267,0,0,0,1.576-3.8L64,37.219V26.781l-8.8-2.167a24.22,24.22,0,0,0-1.576-3.8l4.6-7.663L50.853,5.774l-7.663,4.6a24.218,24.218,0,0,0-3.8-1.575L37.219,0H26.781L24.614,8.8a24.264,24.264,0,0,0-3.8,1.575l-7.663-4.6L5.774,13.147l4.6,7.663a24.173,24.173,0,0,0-1.576,3.8L0,26.781V37.219l8.8,2.167A24.267,24.267,0,0,0,10.372,43.189ZM3.75,29.719l8.065-1.986.287-1.069a22.313,22.313,0,0,1,2.607-5.912L10.5,13.729,13.729,10.5l7.022,4.213A22.319,22.319,0,0,1,26.664,12.1l1.069-.287L29.719,3.75h4.562l1.986,8.065,1.069.288a22.285,22.285,0,0,1,5.912,2.607L50.271,10.5,53.5,13.729,49.29,20.751A22.313,22.313,0,0,1,51.9,26.664l.287,1.069,8.065,1.986v4.562l-8.065,1.986L51.9,37.336a22.3,22.3,0,0,1-2.607,5.912L53.5,50.271,50.271,53.5,43.249,49.29A22.293,22.293,0,0,1,37.336,51.9l-1.069.288L34.281,60.25H29.719l-1.986-8.065L26.664,51.9a22.28,22.28,0,0,1-5.912-2.607L13.729,53.5,10.5,50.271l4.213-7.022A22.353,22.353,0,0,1,12.1,37.336l-.287-1.069L3.75,34.281Zm0,0"/>
      <path id="Path_21" data-name="Path 21" d="M137.875,154.75A16.875,16.875,0,1,0,121,137.875,16.894,16.894,0,0,0,137.875,154.75Zm0-30a13.125,13.125,0,1,1-13.125,13.125A13.14,13.14,0,0,1,137.875,124.75Zm0,0" transform="translate(-105.875 -105.875)"/>
      <path id="Path_22" data-name="Path 22" d="M190.375,199.75A9.375,9.375,0,1,0,181,190.375,9.386,9.386,0,0,0,190.375,199.75Zm0-15a5.625,5.625,0,1,1-5.625,5.625A5.631,5.631,0,0,1,190.375,184.75Zm0,0" transform="translate(-158.375 -158.375)"/>
    </g>
  </g>
</svg>
